<?xml version="1.0" standalone="no"?>
<!DOCTYPE svg PUBLIC "-//W3C//DTD SVG 20010904//EN"
 "http://www.w3.org/TR/2001/REC-SVG-20010904/DTD/svg10.dtd">
<svg version="1.0" xmlns="http://www.w3.org/2000/svg"
 width="1280.000000pt" height="696.000000pt" viewBox="0 0 1280.000000 696.000000"
 preserveAspectRatio="xMidYMid meet">
<metadata>
Created by potrace 1.15, written by Peter Selinger 2001-2017
</metadata>
<g transform="translate(0.000000,696.000000) scale(0.100000,-0.100000)"
fill="#000000" stroke="none">
<path d="M6840 6498 c-5 -12 -147 -610 -315 -1327 -168 -718 -307 -1306 -309
-1308 -10 -10 -1960 -823 -1968 -821 -5 2 -45 89 -87 193 -43 105 -239 582
-435 1060 -214 520 -366 877 -378 888 -28 23 -73 21 -133 -7 -47 -22 -85 -60
-85 -87 0 -6 198 -486 439 -1068 242 -581 441 -1062 443 -1069 2 -10 -91 -54
-287 -136 -160 -67 -295 -125 -300 -128 -7 -4 1 -183 22 -515 17 -279 32 -522
32 -539 1 -32 10 -37 922 -554 l920 -522 262 123 c144 68 1017 482 1942 920
l1680 796 0 533 0 534 -934 428 c-514 235 -940 428 -947 428 -8 0 -197 -77
-420 -170 -224 -94 -409 -169 -411 -166 -3 3 126 559 286 1237 201 854 288
1236 281 1244 -11 13 -98 39 -167 50 -38 6 -44 4 -53 -17z"/>
</g>
</svg>
